# xmcd
#
# Track frame offsets: 
#        182
#        26580
#        49772
#        73390
#        97222
#        125817
#        149322
#        172082
#
# Disc length: 2583 seconds
#
# Revision: 1
# Processed by: cddbd v1.5.2PL0 Copyright (c) Steve Scherf et al.
# Submitted via: ExactAudioCopy v0.99pb5
#
DISCID=800a1508
DTITLE=Tito Rojas - A Mi Estilo
DYEAR=2007
DGENRE=Salsa
TTITLE0=Señora De Madrugada
TTITLE1=Dime Si Eres Feliz
TTITLE2=Por Que Te Quiero Tanto
TTITLE3=Quiero Ser Tuyo
TTITLE4=Enamorame
TTITLE5=He Chocado Con La Vida
TTITLE6=Lo Que Te Queda
TTITLE7=Tambien Nos Duele
EXTD=
EXTT0=
EXTT1=
EXTT2=
EXTT3=
EXTT4=
EXTT5=
EXTT6=
EXTT7=
PLAYORDER=
